<svg width="18" height="19" viewBox="0 0 18 19" fill="none" xmlns="http://www.w3.org/2000/svg">
<path fill-rule="evenodd" clip-rule="evenodd" d="M0.75 9.5C0.75 4.925 4.425 1.25 9 1.25C13.575 1.25 17.25 4.925 17.25 9.5C17.25 14.075 13.575 17.75 9 17.75C4.425 17.75 0.75 14.075 0.75 9.5ZM2.25 9.5C2.25 13.25 5.25 16.25 9 16.25C12.75 16.25 15.75 13.25 15.75 9.5C15.75 5.75 12.75 2.75 9 2.75C5.25 2.75 2.25 5.75 2.25 9.5ZM9.75 8.75H12C12.45 8.75 12.75 9.05 12.75 9.5C12.75 9.95 12.45 10.25 12 10.25H9.75V12.5C9.75 12.95 9.45 13.25 9 13.25C8.55 13.25 8.25 12.95 8.25 12.5V10.25H6C5.55 10.25 5.25 9.95 5.25 9.5C5.25 9.05 5.55 8.75 6 8.75H8.25V6.5C8.25 6.05 8.55 5.75 9 5.75C9.45 5.75 9.75 6.05 9.75 6.5V8.75Z" fill="#EEB545"/>
</svg>
