<svg width="25" height="26" viewBox="0 0 25 26" fill="none" xmlns="http://www.w3.org/2000/svg">
<path fill-rule="evenodd" clip-rule="evenodd" d="M7.05033 4.55025C8.36309 3.2375 10.1436 2.5 12.0001 2.5C13.8566 2.5 15.6371 3.2375 16.9498 4.55025C18.2626 5.86301 19.0001 7.64349 19.0001 9.5C19.0001 12.8527 19.7171 14.9346 20.378 16.1461C20.7098 16.7544 21.0329 17.1535 21.2573 17.3904C21.3698 17.5091 21.4581 17.5878 21.5114 17.6322C21.538 17.6544 21.5558 17.668 21.5635 17.6737C21.5647 17.6746 21.5657 17.6753 21.5664 17.6758C21.9249 17.9221 22.0835 18.3725 21.9572 18.7898C21.8295 19.2115 21.4407 19.5 21.0001 19.5H3.00008C2.55941 19.5 2.17068 19.2115 2.04299 18.7898C1.91664 18.3725 2.07528 17.9221 2.43377 17.6758C2.43447 17.6753 2.43542 17.6746 2.43663 17.6737C2.44432 17.668 2.46218 17.6544 2.4888 17.6322C2.54202 17.5878 2.6304 17.5091 2.74288 17.3904C2.9673 17.1535 3.29039 16.7544 3.62218 16.1461C4.28301 14.9346 5.00008 12.8527 5.00008 9.5C5.00008 7.64348 5.73758 5.86301 7.05033 4.55025ZM2.44388 17.669C2.44395 17.6689 2.44403 17.6688 2.44411 17.6688C2.44411 17.6688 2.4441 17.6688 2.4441 17.6688L2.44388 17.669ZM5.1494 17.5H18.8508C18.7747 17.3753 18.6983 17.2434 18.6222 17.1039C17.783 15.5654 17.0001 13.1473 17.0001 9.5C17.0001 8.17392 16.4733 6.90215 15.5356 5.96447C14.5979 5.02678 13.3262 4.5 12.0001 4.5C10.674 4.5 9.40223 5.02678 8.46454 5.96447C7.52686 6.90215 7.00008 8.17392 7.00008 9.5C7.00008 13.1473 6.21715 15.5654 5.37797 17.1039C5.30188 17.2434 5.22549 17.3753 5.1494 17.5Z" fill="#2F1707"/>
<path fill-rule="evenodd" clip-rule="evenodd" d="M9.76792 21.6352C10.2457 21.358 10.8576 21.5207 11.1347 21.9984C11.2226 22.1499 11.3488 22.2757 11.5006 22.3632C11.6524 22.4506 11.8245 22.4966 11.9997 22.4966C12.1749 22.4966 12.347 22.4506 12.4988 22.3632C12.6506 22.2757 12.7768 22.1499 12.8647 21.9984C13.1418 21.5207 13.7537 21.358 14.2315 21.6352C14.7092 21.9123 14.8718 22.5242 14.5947 23.0019C14.331 23.4566 13.9525 23.8339 13.497 24.0962C13.0416 24.3586 12.5253 24.4966 11.9997 24.4966C11.4741 24.4966 10.9578 24.3586 10.5024 24.0962C10.0469 23.8339 9.66841 23.4566 9.4047 23.0019C9.12758 22.5242 9.2902 21.9123 9.76792 21.6352Z" fill="#2F1707"/>
<circle cx="23" cy="2.5" r="2" fill="#DF3666"/>
</svg>
