<svg width="30" height="30" viewBox="0 0 30 30" fill="none" xmlns="http://www.w3.org/2000/svg">
<path fill-rule="evenodd" clip-rule="evenodd" d="M8.75 5C8.41848 5 8.10054 5.1317 7.86612 5.36612C7.6317 5.60054 7.5 5.91848 7.5 6.25V23.821L14.2735 18.9828C14.7081 18.6724 15.2919 18.6724 15.7265 18.9828L22.5 23.821V6.25C22.5 5.91848 22.3683 5.60054 22.1339 5.36612C21.8995 5.1317 21.5815 5 21.25 5H8.75ZM6.09835 3.59835C6.80161 2.89509 7.75544 2.5 8.75 2.5H21.25C22.2446 2.5 23.1984 2.89509 23.9016 3.59835C24.6049 4.30161 25 5.25544 25 6.25V26.25C25 26.7182 24.7383 27.1472 24.322 27.3615C23.9056 27.5757 23.4045 27.5393 23.0235 27.2672L15 21.5361L6.97655 27.2672C6.59553 27.5393 6.09436 27.5757 5.67802 27.3615C5.26168 27.1472 5 26.7182 5 26.25V6.25C5 5.25544 5.39509 4.30161 6.09835 3.59835Z" fill="#745039"/>
</svg>
