<svg width="39" height="39" viewBox="0 0 39 39" fill="none" xmlns="http://www.w3.org/2000/svg">
<g clip-path="url(#clip0_1560_5523)">
<path fill-rule="evenodd" clip-rule="evenodd" d="M8.9585 9.91659C8.9585 9.38731 9.38756 8.95825 9.91683 8.95825H11.8335C12.2903 8.95825 12.6835 9.28062 12.7732 9.72851L13.5781 13.7499H29.0835C29.3691 13.7499 29.6398 13.8773 29.8219 14.0974C30.0039 14.3174 30.0784 14.6072 30.0249 14.8878L28.4902 22.9354C28.3587 23.5972 27.9986 24.1917 27.473 24.6148C26.9501 25.0358 26.2963 25.2604 25.6252 25.2499H16.3268C15.6557 25.2604 15.0019 25.0358 14.479 24.6148C13.9536 24.1919 13.5936 23.5977 13.462 22.9362L11.8611 14.9375C11.8546 14.911 11.8492 14.8841 11.8449 14.8569L11.048 10.8749H9.91683C9.38756 10.8749 8.9585 10.4459 8.9585 9.91659ZM13.9617 15.6666L15.3418 22.562C15.3856 22.7826 15.5056 22.9807 15.6808 23.1218C15.856 23.2628 16.0753 23.3377 16.3001 23.3334L16.3185 23.3333H25.6335L25.6519 23.3334C25.8767 23.3377 26.096 23.2628 26.2712 23.1218C26.4455 22.9814 26.5653 22.7844 26.6096 22.565L27.9251 15.6666H13.9617ZM13.7502 28.1249C13.7502 27.0664 14.6083 26.2083 15.6668 26.2083C16.7254 26.2083 17.5835 27.0664 17.5835 28.1249C17.5835 29.1835 16.7254 30.0416 15.6668 30.0416C14.6083 30.0416 13.7502 29.1835 13.7502 28.1249ZM24.2918 28.1249C24.2918 27.0664 25.15 26.2083 26.2085 26.2083C27.267 26.2083 28.1252 27.0664 28.1252 28.1249C28.1252 29.1835 27.267 30.0416 26.2085 30.0416C25.15 30.0416 24.2918 29.1835 24.2918 28.1249Z" fill="#2F1707"/>
</g>
<defs>
<clipPath id="clip0_1560_5523">
<rect width="23" height="23" fill="white" transform="translate(8 8)"/>
</clipPath>
</defs>
</svg>
