<svg width="40" height="40" viewBox="0 0 40 40" fill="none" xmlns="http://www.w3.org/2000/svg">
<g clip-path="url(#clip0_1455_4085)">
<path d="M20 39.9996C15.0703 39.9996 10.4375 38.0823 6.95313 34.606C3.46875 31.1298 1.54688 26.5078 1.54688 21.5897C1.54688 16.6715 3.46875 12.0495 6.95313 8.5733C10.4375 5.09707 15.0703 3.17969 20 3.17969C24.9297 3.17969 29.5625 5.09707 33.0469 8.5733C36.5313 12.0495 38.4531 16.6715 38.4531 21.5897C38.4531 24.3254 37.8672 26.9521 36.7109 29.4073C36.3438 30.1867 35.4141 30.5219 34.6328 30.1555C33.8516 29.7892 33.5156 28.8617 33.8828 28.0823C34.8438 26.048 35.3281 23.8578 35.3281 21.5897C35.3281 13.1641 28.4531 6.30517 20.0078 6.30517C11.5625 6.30517 4.6875 13.1641 4.6875 21.5897C4.6875 30.0152 11.5625 36.8742 20.0078 36.8742C23.0781 36.8742 26.0469 35.97 28.5781 34.2631C29.2969 33.7798 30.2656 33.9669 30.75 34.684C31.2344 35.401 31.0469 36.3675 30.3281 36.8508C27.2656 38.9084 23.6953 39.9996 20 39.9996Z" fill="white"/>
<path d="M3.89802 8.26167C3.43708 8.26167 2.97615 8.05902 2.66365 7.66152C2.1324 6.98342 2.24958 6.00135 2.92927 5.47134L7.81209 1.66775C8.49177 1.13774 9.47615 1.25466 10.0074 1.93276C10.5386 2.61085 10.4215 3.59293 9.74177 4.12294L4.85896 7.92652C4.5699 8.15255 4.23396 8.26167 3.89802 8.26167Z" fill="white"/>
<path d="M36.1011 8.26169C35.7652 8.26169 35.4293 8.15257 35.1402 7.93433L30.2574 4.13075C29.5777 3.60074 29.4605 2.61867 29.9918 1.94057C30.523 1.26247 31.5074 1.14556 32.1871 1.67556L37.0699 5.47915C37.7496 6.00916 37.8668 6.99123 37.3355 7.66933C37.023 8.05904 36.5621 8.26169 36.1011 8.26169Z" fill="white"/>
<path d="M20.0156 24.5825C21.8019 24.5825 23.25 23.1378 23.25 21.3557C23.25 19.5736 21.8019 18.1289 20.0156 18.1289C18.2293 18.1289 16.7812 19.5736 16.7812 21.3557C16.7812 23.1378 18.2293 24.5825 20.0156 24.5825Z" fill="white"/>
<path d="M20.008 22.9151C19.6565 22.9151 19.2971 22.7981 19.008 22.5487C18.344 21.9953 18.258 21.0133 18.8127 20.3508L25.3518 12.5565C25.9065 11.894 26.8908 11.8083 27.5549 12.3617C28.219 12.9151 28.3049 13.8971 27.7502 14.5596L21.2112 22.3539C20.8987 22.728 20.4612 22.9151 20.008 22.9151Z" fill="white"/>
<path d="M20.0156 6.30559C19.1563 6.30559 18.4531 5.60411 18.4531 4.74674V1.58228C18.4531 0.724918 19.1563 0.0234375 20.0156 0.0234375C20.875 0.0234375 21.5781 0.724918 21.5781 1.58228V4.74674C21.5781 5.6119 20.875 6.30559 20.0156 6.30559Z" fill="white"/>
</g>
<defs>
<clipPath id="clip0_1455_4085">
<rect width="40" height="40" fill="white"/>
</clipPath>
</defs>
</svg>
