<svg width="40" height="40" viewBox="0 0 40 40" fill="none" xmlns="http://www.w3.org/2000/svg">
<path d="M26.485 17.3168C22.6002 17.3168 19.4473 14.1499 19.4473 10.2654C19.4473 6.38079 22.608 3.21387 26.485 3.21387C30.362 3.21387 33.5228 6.38079 33.5228 10.2654C33.5228 14.1499 30.362 17.3168 26.485 17.3168ZM26.485 6.33399C24.3208 6.33399 22.5613 8.09686 22.5613 10.2654C22.5613 12.4338 24.3208 14.1967 26.485 14.1967C28.6493 14.1967 30.4087 12.4338 30.4087 10.2654C30.4087 8.09686 28.6493 6.33399 26.485 6.33399Z" fill="white"/>
<path d="M38.2409 29.3139H26.6411C25.7847 29.3139 25.084 28.6119 25.084 27.7538C25.084 26.8958 25.7847 26.1938 26.6411 26.1938H36.5593C35.812 21.3888 31.6469 17.6992 26.6411 17.6992C24.072 17.6992 21.6274 18.6743 19.759 20.4371C19.1362 21.03 18.1475 20.9988 17.5558 20.3747C16.9642 19.7507 16.9953 18.7601 17.6181 18.1673C20.0704 15.8584 23.2701 14.5869 26.6333 14.5869C33.889 14.5869 39.7824 20.4996 39.7824 27.7616C39.7979 28.6119 39.0973 29.3139 38.2409 29.3139Z" fill="white"/>
<path d="M13.1491 28.0034C9.26431 28.0034 6.11133 24.8364 6.11133 20.9519C6.11133 17.0673 9.27209 13.9004 13.1491 13.9004C17.0261 13.9004 20.1868 17.0673 20.1868 20.9519C20.1868 24.8364 17.0339 28.0034 13.1491 28.0034ZM13.1491 17.0205C10.9848 17.0205 9.22538 18.7834 9.22538 20.9519C9.22538 23.1204 10.9848 24.8832 13.1491 24.8832C15.3134 24.8832 17.0728 23.1204 17.0728 20.9519C17.0728 18.7834 15.3134 17.0205 13.1491 17.0205Z" fill="white"/>
<path d="M24.7489 40.0004C23.8926 40.0004 23.1919 39.2984 23.1919 38.4404C23.1919 32.8943 18.6921 28.3857 13.1569 28.3857C8.15103 28.3857 3.99377 32.0753 3.23861 36.8803H17.8747C18.731 36.8803 19.4317 37.5823 19.4317 38.4404C19.4317 39.2984 18.731 40.0004 17.8747 40.0004H1.55703C0.700662 40.0004 0 39.2984 0 38.4404C0 31.1705 5.90113 25.2656 13.1491 25.2656C20.397 25.2656 26.2982 31.1783 26.2982 38.4404C26.306 39.2984 25.6053 40.0004 24.7489 40.0004Z" fill="white"/>
</svg>
