<svg width="40" height="40" viewBox="0 0 40 40" fill="none" xmlns="http://www.w3.org/2000/svg">
<path d="M35.2109 39.9141H8.53125C5.5 39.9141 3.03125 37.4453 3.03125 34.4141V5.50781C3.03125 2.47656 5.5 0.0078125 8.53125 0.0078125H31.2656C34.2969 0.0078125 36.7656 2.47656 36.7656 5.50781V19.4609C36.7656 20.3203 36.0625 21.0234 35.2031 21.0234C34.3437 21.0234 33.6406 20.3203 33.6406 19.4609V5.50781C33.6406 4.19531 32.5781 3.13281 31.2656 3.13281H8.53125C7.21875 3.13281 6.15625 4.19531 6.15625 5.50781V34.4141C6.15625 35.7266 7.21875 36.7891 8.53125 36.7891H35.2109C36.0703 36.7891 36.7734 37.4922 36.7734 38.3516C36.7734 39.2109 36.0703 39.9141 35.2109 39.9141Z" fill="white"/>
<path d="M4.59375 37.0625C3.73437 37.0625 3.03125 36.3594 3.03125 35.5C3.03125 32.8984 5.14844 30.7734 7.75781 30.7734H33.6484V27.3828C33.6484 26.5234 34.3516 25.8203 35.2109 25.8203C36.0703 25.8203 36.7734 26.5234 36.7734 27.3828V32.3359C36.7734 33.1953 36.0703 33.8984 35.2109 33.8984H7.75C6.86719 33.8984 6.14844 34.6172 6.14844 35.5C6.15625 36.3594 5.45312 37.0625 4.59375 37.0625Z" fill="white"/>
<path d="M11.1797 33.5859C10.3203 33.5859 9.61719 32.8828 9.61719 32.0234V1.57031C9.61719 0.710938 10.3203 0.0078125 11.1797 0.0078125C12.0391 0.0078125 12.7422 0.710938 12.7422 1.57031V32.0234C12.7422 32.8828 12.0469 33.5859 11.1797 33.5859Z" fill="white"/>
<path d="M29.7813 12.3359H16.5156C15.6562 12.3359 14.9531 11.6328 14.9531 10.7734C14.9531 9.91406 15.6562 9.21094 16.5156 9.21094H29.7813C30.6406 9.21094 31.3438 9.91406 31.3438 10.7734C31.3438 11.6328 30.6406 12.3359 29.7813 12.3359Z" fill="white"/>
<path d="M29.7813 16.6328H16.5156C15.6562 16.6328 14.9531 15.9297 14.9531 15.0703C14.9531 14.2109 15.6562 13.5078 16.5156 13.5078H29.7813C30.6406 13.5078 31.3438 14.2109 31.3438 15.0703C31.3438 15.9297 30.6406 16.6328 29.7813 16.6328Z" fill="white"/>
</svg>
