<svg width="39" height="39" viewBox="0 0 39 39" fill="none" xmlns="http://www.w3.org/2000/svg">
<path d="M12.639 9.91699C13.08 9.91699 13.4596 10.2236 13.5439 10.6473L13.6015 11.1149H28.816C29.5944 11.1149 30.2156 11.873 29.997 12.637L27.9265 19.826C27.7769 20.3426 27.2938 20.6982 26.7455 20.6982H15.5033L15.8561 22.4951H27.6698C28.1798 22.4951 28.5901 22.8957 28.5901 23.3936C28.5901 23.8914 28.1798 24.292 27.6698 24.292H15.0585C14.6521 24.292 14.2725 23.985 14.1881 23.562L11.8775 11.7139H9.87826C9.37021 11.7139 8.95801 11.3114 8.95801 10.8154C8.95801 10.3194 9.37021 9.91699 9.87826 9.91699H12.639ZM13.866 27.2868C13.866 26.2948 14.6904 25.4899 15.7065 25.4899C16.7226 25.4899 17.547 26.2948 17.547 27.2868C17.547 28.2788 16.7226 29.0837 15.7065 29.0837C14.6904 29.0837 13.866 28.2788 13.866 27.2868ZM28.5901 27.2868C28.5901 28.2788 27.7657 29.0837 26.7496 29.0837C25.7335 29.0837 24.9091 28.2788 24.9091 27.2868C24.9091 26.2948 25.7335 25.4899 26.7496 25.4899C27.7657 25.4899 28.5901 26.2948 28.5901 27.2868Z" fill="#2F1707"/>
<circle cx="36" cy="7" r="3" fill="#DD3363"/>
</svg>
