<svg width="40" height="40" viewBox="0 0 40 40" fill="none" xmlns="http://www.w3.org/2000/svg">
<g clip-path="url(#clip0_1455_4074)">
<path d="M29.4345 18.8438C23.6178 18.8438 18.9082 23.5469 18.9082 29.3557C18.9082 35.1646 23.6178 39.8677 29.4345 39.8677C35.2513 39.8677 39.9608 35.1646 39.9608 29.3557C39.9608 23.5469 35.2435 18.8438 29.4345 18.8438ZM29.4345 36.753C25.3487 36.753 22.0271 33.4359 22.0271 29.3557C22.0271 25.2755 25.3487 21.9584 29.4345 21.9584C33.5203 21.9584 36.8419 25.2755 36.8419 29.3557C36.8419 33.4359 33.5203 36.753 29.4345 36.753Z" fill="white"/>
<path d="M33.3016 28.7016H30.8377V25.4001C30.8377 24.5436 30.1359 23.8428 29.2782 23.8428C28.4205 23.8428 27.7188 24.5436 27.7188 25.4001V30.259C27.7188 31.1155 28.4205 31.8163 29.2782 31.8163H33.3016C34.1593 31.8163 34.8611 31.1155 34.8611 30.259C34.8611 29.4024 34.1593 28.7016 33.3016 28.7016Z" fill="white"/>
<path d="M33.5828 2.9514H31.7271V1.63545C31.7271 0.778923 31.0253 0.078125 30.1676 0.078125C29.3099 0.078125 28.6082 0.778923 28.6082 1.63545V2.9514H21.5595V1.63545C21.5595 0.778923 20.8577 0.078125 20 0.078125C19.1423 0.078125 18.4405 0.778923 18.4405 1.63545V2.9514H11.4776V1.63545C11.4776 0.778923 10.7758 0.078125 9.91813 0.078125C9.06043 0.078125 8.35867 0.778923 8.35867 1.63545V2.9514H6.41715C2.87719 2.9514 0 5.82467 0 9.35981V33.5841C0 37.1192 2.87719 39.9925 6.41715 39.9925H18.4327C19.2904 39.9925 19.9922 39.2917 19.9922 38.4351C19.9922 37.5786 19.2904 36.8778 18.4327 36.8778H6.41715C4.60039 36.8778 3.11891 35.3983 3.11891 33.5841V9.35981C3.11891 7.54552 4.60039 6.06606 6.41715 6.06606H8.35867V7.7869C8.35867 8.64344 9.06043 9.34423 9.91813 9.34423C10.7758 9.34423 11.4776 8.64344 11.4776 7.7869V6.06606H18.4405V7.7869C18.4405 8.64344 19.1423 9.34423 20 9.34423C20.8577 9.34423 21.5595 8.64344 21.5595 7.7869V6.06606H28.6082V7.7869C28.6082 8.64344 29.3099 9.34423 30.1676 9.34423C31.0253 9.34423 31.7271 8.64344 31.7271 7.7869V6.06606H33.5828C35.3996 6.06606 36.8811 7.54552 36.8811 9.35981V18.7505C36.8811 19.607 37.5828 20.3078 38.4405 20.3078C39.2982 20.3078 40 19.607 40 18.7505V9.35981C40 5.82467 37.1228 2.9514 33.5828 2.9514Z" fill="white"/>
<path d="M11.322 16.1814C11.322 15.3248 10.6203 14.624 9.76258 14.624C8.90488 14.624 8.20312 15.3248 8.20312 16.1814V16.5395C8.20312 17.3961 8.90488 18.0969 9.76258 18.0969C10.6203 18.0969 11.322 17.3961 11.322 16.5395V16.1814Z" fill="white"/>
<path d="M9.76258 28.2656C8.90488 28.2656 8.20312 28.9664 8.20312 29.823V30.1811C8.20312 31.0377 8.90488 31.7385 9.76258 31.7385C10.6203 31.7385 11.322 31.0377 11.322 30.1811V29.823C11.322 28.9664 10.6203 28.2656 9.76258 28.2656Z" fill="white"/>
<path d="M11.322 22.9626C11.322 22.1061 10.6203 21.4053 9.76258 21.4053C8.90488 21.4053 8.20312 22.1061 8.20312 22.9626V23.3208C8.20312 24.1773 8.90488 24.8781 9.76258 24.8781C10.6203 24.8781 11.322 24.1773 11.322 23.3208V22.9626Z" fill="white"/>
<path d="M18.1209 16.1814C18.1209 15.3248 17.4191 14.624 16.5614 14.624C15.7037 14.624 15.002 15.3248 15.002 16.1814V16.5395C15.002 17.3961 15.7037 18.0969 16.5614 18.0969C17.4191 18.0969 18.1209 17.3961 18.1209 16.5395V16.1814Z" fill="white"/>
<path d="M18.1209 22.9626C18.1209 22.1061 17.4191 21.4053 16.5614 21.4053C15.7037 21.4053 15.002 22.1061 15.002 22.9626V23.3208C15.002 24.1773 15.7037 24.8781 16.5614 24.8781C17.4191 24.8781 18.1209 24.1773 18.1209 23.3208V22.9626Z" fill="white"/>
<path d="M16.5614 28.2656C15.7037 28.2656 15.002 28.9664 15.002 29.823V30.1811C15.002 31.0377 15.7037 31.7385 16.5614 31.7385C17.4191 31.7385 18.1209 31.0377 18.1209 30.1811V29.823C18.1209 28.9664 17.4269 28.2656 16.5614 28.2656Z" fill="white"/>
<path d="M23.368 14.624C22.5103 14.624 21.8086 15.3248 21.8086 16.1814V16.5395C21.8086 17.3961 22.5103 18.0969 23.368 18.0969C24.2257 18.0969 24.9275 17.3961 24.9275 16.5395V16.1814C24.9275 15.317 24.2257 14.624 23.368 14.624Z" fill="white"/>
<path d="M30.1679 14.624C29.3102 14.624 28.6084 15.3248 28.6084 16.1814V16.5395C28.6084 17.3961 29.3102 18.0969 30.1679 18.0969C31.0256 18.0969 31.7273 17.3961 31.7273 16.5395V16.1814C31.7273 15.317 31.0256 14.624 30.1679 14.624Z" fill="white"/>
</g>
<defs>
<clipPath id="clip0_1455_4074">
<rect width="40" height="40" fill="white"/>
</clipPath>
</defs>
</svg>
