<svg width="40" height="40" viewBox="0 0 40 40" fill="none" xmlns="http://www.w3.org/2000/svg">
<g clip-path="url(#clip0_1455_4079)">
<path d="M16.8906 40C15.9609 40 15.0313 39.6484 14.3203 38.9375L1.0625 25.6797C-0.351562 24.2656 -0.351562 21.9531 1.0625 20.5391L20.6719 0.929688C21.2734 0.328125 22.0703 0 22.9141 0H36.8359C38.5781 0 40 1.42188 40 3.16406V17.0859C40 17.9297 39.6719 18.7266 39.0703 19.3203L19.4609 38.9297C18.75 39.6484 17.8203 40 16.8906 40ZM22.9297 3.20312L3.32812 22.8047C3.15625 22.9766 3.15625 23.25 3.32812 23.4141L16.5859 36.6719C16.7578 36.8438 17.0313 36.8438 17.1953 36.6719L36.7969 17.0703V3.20312H22.9297Z" fill="white"/>
<path d="M18.3232 13.6055C18.5732 13.3008 18.6982 13.0977 18.8701 12.9336C19.3701 12.457 20.1045 12.4648 20.5576 12.9258C21.0186 13.3867 21.0186 14.1133 20.5342 14.6133C19.9326 15.2383 19.3076 15.8398 18.6982 16.457C18.1748 16.9805 18.1357 17.6289 18.5811 18.0898C19.0498 18.5742 19.6982 18.5352 20.2451 18.0039C20.5889 17.668 20.9248 17.3242 21.2686 16.9883C22.6123 15.6836 24.5967 15.582 25.9873 16.7461C27.3623 17.9023 27.6201 19.8477 26.5967 21.4023C26.5576 21.457 26.5264 21.5117 26.4248 21.6602C26.6045 21.8086 26.8076 21.9336 26.9717 22.1055C27.4482 22.6055 27.4482 23.332 26.9873 23.793C26.5264 24.2539 25.792 24.2539 25.2998 23.7852C25.1357 23.6289 25.0107 23.4336 24.8311 23.2148C24.4951 23.5586 24.2451 23.832 23.9795 24.0898C23.4482 24.6055 22.6982 24.6133 22.2295 24.1211C21.7686 23.6445 21.7998 22.9258 22.3076 22.4023C23.0264 21.668 23.7607 20.9492 24.4873 20.2227C24.8154 19.8867 24.9248 19.4883 24.7764 19.043C24.6357 18.6289 24.3232 18.3867 23.8936 18.332C23.5264 18.2773 23.2139 18.4102 22.9482 18.668C22.5967 19.0117 22.2529 19.3711 21.9014 19.7148C20.5342 21.0664 18.5342 21.1758 17.1201 19.9883C15.7295 18.8164 15.5029 16.8477 16.5811 15.2617C16.5967 15.2383 16.6045 15.2148 16.7061 15.1055C16.5107 14.9492 16.3076 14.8008 16.1357 14.6211C15.6592 14.1211 15.667 13.3867 16.1357 12.9336C16.5967 12.4883 17.3076 12.4727 17.792 12.9336C17.9795 13.1055 18.1045 13.3164 18.3232 13.6055Z" fill="white"/>
<path d="M32.3047 6.33841C32.5914 6.33841 32.8781 6.44978 33.0946 6.66667C33.5334 7.1063 33.5334 7.81558 33.0946 8.25521C32.8781 8.47209 32.5914 8.58347 32.3047 8.58347C32.018 8.58347 31.7313 8.47209 31.5148 8.25521C31.076 7.81558 31.076 7.1063 31.5148 6.66667C31.7313 6.44978 32.018 6.33841 32.3047 6.33841ZM32.3047 5.07812C31.6669 5.07812 31.0701 5.32432 30.6196 5.77568C29.6893 6.7077 29.6893 8.22004 30.6196 9.1462C31.0701 9.59756 31.6669 9.84375 32.3047 9.84375C32.9424 9.84375 33.5392 9.59756 33.9898 9.1462C34.9201 8.21418 34.9201 6.70184 33.9898 5.77568C33.5334 5.32432 32.9366 5.07812 32.3047 5.07812Z" fill="white"/>
</g>
<defs>
<clipPath id="clip0_1455_4079">
<rect width="40" height="40" fill="white"/>
</clipPath>
</defs>
</svg>
