<svg width="24" height="24" viewBox="0 0 24 24" fill="none" xmlns="http://www.w3.org/2000/svg">
<path fill-rule="evenodd" clip-rule="evenodd" d="M5.89251 3.7355C6.87251 2.10216 8.75648 1 12 1C15.2435 1 17.1275 2.10216 18.1075 3.7355C18.7791 4.85486 18.9456 6.11339 18.9867 7.08408C19.8415 7.22433 20.83 7.55524 21.7094 8.18848C23.0086 9.12389 24 10.6741 24 13C24 14.5431 23.5635 15.7655 22.857 16.6969C22.1584 17.6177 21.2416 18.1948 20.3646 18.5382C19.8503 18.7395 19.2702 18.4859 19.0688 17.9716C18.8675 17.4573 19.1211 16.8772 19.6354 16.6758C20.2524 16.4342 20.8356 16.0523 21.2635 15.4881C21.6835 14.9345 22 14.1459 22 13C22 11.3259 21.3249 10.3761 20.5408 9.81152C19.7057 9.21023 18.6735 9 18 9C17.4477 9 17 8.55228 17 8C17 6.96314 16.9793 5.74248 16.3925 4.7645C15.8725 3.89784 14.7565 3 12 3C9.24352 3 8.12749 3.89784 7.60749 4.7645C7.0207 5.74248 7 6.96314 7 8C7 8.55228 6.55228 9 6 9C5.3265 9 4.29429 9.21023 3.4592 9.81152C2.67508 10.3761 2 11.3259 2 13C2 14.1459 2.31652 14.9345 2.73645 15.4881C3.1644 16.0523 3.74762 16.4342 4.36461 16.6758C4.87888 16.8772 5.13253 17.4573 4.93116 17.9716C4.72979 18.4859 4.14965 18.7395 3.63539 18.5382C2.75838 18.1948 1.8416 17.6177 1.14305 16.6969C0.436485 15.7655 0 14.5431 0 13C0 10.6741 0.991416 9.12389 2.29056 8.18848C3.17002 7.55524 4.15853 7.22432 5.01333 7.08408C5.05441 6.11339 5.2209 4.85486 5.89251 3.7355Z" fill="#BFBFBF"/>
<path fill-rule="evenodd" clip-rule="evenodd" d="M12 12C12.5523 12 13 12.4477 13 13V19.5858L14.7929 17.7929C15.1834 17.4024 15.8166 17.4024 16.2071 17.7929C16.5976 18.1834 16.5976 18.8166 16.2071 19.2071L12.7071 22.7071C12.3166 23.0976 11.6834 23.0976 11.2929 22.7071L7.79289 19.2071C7.40237 18.8166 7.40237 18.1834 7.79289 17.7929C8.18342 17.4024 8.81658 17.4024 9.20711 17.7929L11 19.5858V13C11 12.4477 11.4477 12 12 12Z" fill="#BFBFBF"/>
</svg>
