<svg width="20" height="20" viewBox="0 0 20 20" fill="none" xmlns="http://www.w3.org/2000/svg">
<g clip-path="url(#clip0_2839_4911)">
<path fill-rule="evenodd" clip-rule="evenodd" d="M3.33325 4.16667C2.87301 4.16667 2.49992 4.53976 2.49992 5V16.6667C2.49992 17.1269 2.87301 17.5 3.33325 17.5H16.6666C17.1268 17.5 17.4999 17.1269 17.4999 16.6667V5C17.4999 4.53976 17.1268 4.16667 16.6666 4.16667H3.33325ZM0.833252 5C0.833252 3.61929 1.95254 2.5 3.33325 2.5H16.6666C18.0473 2.5 19.1666 3.61929 19.1666 5V16.6667C19.1666 18.0474 18.0473 19.1667 16.6666 19.1667H3.33325C1.95254 19.1667 0.833252 18.0474 0.833252 16.6667V5Z" fill="#745039"/>
<path fill-rule="evenodd" clip-rule="evenodd" d="M13.3333 0.833008C13.7936 0.833008 14.1667 1.2061 14.1667 1.66634V4.99967C14.1667 5.45991 13.7936 5.83301 13.3333 5.83301C12.8731 5.83301 12.5 5.45991 12.5 4.99967V1.66634C12.5 1.2061 12.8731 0.833008 13.3333 0.833008Z" fill="#745039"/>
<path fill-rule="evenodd" clip-rule="evenodd" d="M6.66659 0.833008C7.12682 0.833008 7.49992 1.2061 7.49992 1.66634V4.99967C7.49992 5.45991 7.12682 5.83301 6.66659 5.83301C6.20635 5.83301 5.83325 5.45991 5.83325 4.99967V1.66634C5.83325 1.2061 6.20635 0.833008 6.66659 0.833008Z" fill="#745039"/>
<path fill-rule="evenodd" clip-rule="evenodd" d="M1.66675 8.33333C1.66675 7.8731 2.03984 7.5 2.50008 7.5H17.5001C17.9603 7.5 18.3334 7.8731 18.3334 8.33333C18.3334 8.79357 17.9603 9.16667 17.5001 9.16667H2.50008C2.03984 9.16667 1.66675 8.79357 1.66675 8.33333Z" fill="#745039"/>
</g>
<defs>
<clipPath id="clip0_2839_4911">
<rect width="20" height="20" fill="white"/>
</clipPath>
</defs>
</svg>
