<svg width="44" height="58" viewBox="0 0 44 58" fill="none" xmlns="http://www.w3.org/2000/svg">
<path fill-rule="evenodd" clip-rule="evenodd" d="M21.0814 30.0976C20.3691 30.0532 19.6921 29.9587 19.0516 29.8257L18.3255 32.8209C18.2337 33.242 17.8662 33.4946 17.4069 33.4946H17.2232C16.7639 33.4104 16.3964 32.9051 16.4883 32.4841L17.2533 29.3281C16.5693 29.0901 15.9395 28.8133 15.3656 28.5185L13.8243 31.6419C13.6406 31.9788 13.365 32.1472 12.9976 32.1472C12.9057 32.1472 12.722 32.1472 12.6301 32.063C12.1708 31.8946 11.9871 31.3893 12.1708 30.9682L13.8278 27.6105C12.3731 26.6331 11.4906 25.6807 11.2328 25.4024C11.1955 25.3621 11.1713 25.336 11.1602 25.3259C10.8847 24.989 10.9765 24.3995 11.344 24.1469C11.7114 23.8943 12.3544 23.9785 12.63 24.3153C12.63 24.3153 16.1208 28.4418 22 28.4418C27.8792 28.4418 31.37 24.3153 31.37 24.3153C31.6456 23.9785 32.2886 23.8943 32.656 24.1469C33.0235 24.3995 33.1153 24.989 32.8398 25.3259C32.8287 25.336 32.8045 25.3621 32.7672 25.4024C32.5094 25.6807 31.6269 26.633 30.1724 27.6104L31.8294 30.9682C32.0131 31.3893 31.8294 31.8946 31.37 32.063C31.2782 32.1472 31.0945 32.1472 31.0026 32.1472C30.6351 32.1472 30.3596 31.9788 30.1758 31.6419L28.6345 28.5184C28.0606 28.8132 27.4309 29.09 26.7468 29.3281L27.5119 32.4841C27.6037 32.9051 27.3281 33.4104 26.777 33.4946H26.5932C26.1339 33.4946 25.7665 33.242 25.6746 32.8209L24.9486 29.8257C24.308 29.9586 23.631 30.0532 22.9187 30.0976V33.1579C22.9187 33.6631 22.5512 34 22 34C21.4489 34 21.0814 33.6631 21.0814 33.1579V30.0976Z" fill="#2F1707"/>
</svg>
