<svg width="9" height="19" viewBox="0 0 9 19" fill="none" xmlns="http://www.w3.org/2000/svg">
<path d="M6.04762 10.8391C6.04762 10.9415 6.04762 11.044 6.04762 11.1464C6.04762 13.4512 6.04762 15.7047 6.04762 18.0095C6.04762 18.6753 6 18.7266 5.38095 18.7266C4.61905 18.7266 3.80952 18.7266 3.04762 18.7266C2.61905 18.7266 2.52381 18.6241 2.52381 18.1632C2.52381 15.8584 2.52381 13.5536 2.52381 11.1976C2.52381 11.0952 2.52381 11.044 2.52381 10.8903C2.42857 10.8903 2.38095 10.8903 2.28571 10.8903C1.71429 10.8903 1.09524 10.8903 0.52381 10.8903C0.0952383 10.8903 0 10.7879 0 10.3269C0 9.45625 0 8.63677 0 7.76608C0 7.30513 0.0952383 7.20269 0.52381 7.20269C1.09524 7.20269 1.71429 7.20269 2.28571 7.20269C2.38095 7.20269 2.42857 7.20269 2.52381 7.20269C2.52381 7.10026 2.52381 6.99782 2.52381 6.94661C2.52381 6.12713 2.52381 5.25644 2.57143 4.43696C2.71429 2.33706 4.2381 0.85176 6.19048 0.749326C7 0.698108 7.80952 0.749326 8.61905 0.749326C8.90476 0.749326 9 0.85176 9 1.15906C9 2.02976 9 2.90045 9 3.77114C9 4.07844 8.90476 4.18088 8.57143 4.18088C8 4.18088 7.47619 4.18088 6.90476 4.18088C6.28571 4.18088 6 4.43696 6 5.154C6 5.81983 6 6.43443 6 7.10026C6.09524 7.10026 6.14286 7.10026 6.2381 7.10026C6.95238 7.10026 7.66667 7.10026 8.38095 7.10026C8.80952 7.10026 8.90476 7.20269 8.90476 7.66365C8.90476 8.53434 8.90476 9.40503 8.90476 10.2757C8.90476 10.6855 8.80952 10.7879 8.42857 10.7879C7.71429 10.7879 7 10.7879 6.28571 10.7879C6.2381 10.8391 6.14286 10.8391 6.04762 10.8391Z" fill="#9A8C81"/>
</svg>
