<svg width="28" height="28" viewBox="0 0 28 28" fill="none" xmlns="http://www.w3.org/2000/svg">
<path fill-rule="evenodd" clip-rule="evenodd" d="M25.6667 5.83331C25.6667 6.47765 25.1444 6.99998 24.5001 6.99998L16.3334 6.99998C15.6891 6.99998 15.1667 6.47764 15.1667 5.83331C15.1667 5.18898 15.6891 4.66665 16.3334 4.66665L24.5001 4.66665C25.1444 4.66665 25.6667 5.18898 25.6667 5.83331ZM25.6667 14C25.6667 14.6443 25.1444 15.1666 24.5001 15.1666L19.8334 15.1666L19.8334 16.3333C19.8334 16.9776 19.3111 17.5 18.6667 17.5C18.0224 17.5 17.5001 16.9776 17.5001 16.3333L17.5001 11.6666C17.5001 11.0223 18.0224 10.5 18.6667 10.5C19.3111 10.5 19.8334 11.0223 19.8334 11.6666L19.8334 12.8333L24.5001 12.8333C25.1444 12.8333 25.6667 13.3556 25.6667 14ZM25.6667 22.1666C25.6667 22.811 25.1444 23.3333 24.5001 23.3333L14.0001 23.3333C13.3557 23.3333 12.8334 22.811 12.8334 22.1666C12.8334 21.5223 13.3557 21 14.0001 21L24.5001 21C25.1444 21 25.6667 21.5223 25.6667 22.1666ZM15.1667 14C15.1667 14.6443 14.6444 15.1666 14.0001 15.1666L3.50008 15.1666C2.85575 15.1666 2.33342 14.6443 2.33342 14C2.33342 13.3556 2.85575 12.8333 3.50008 12.8333L14.0001 12.8333C14.6444 12.8333 15.1667 13.3556 15.1667 14ZM11.6667 2.33331C12.3111 2.33331 12.8334 2.85565 12.8334 3.49998L12.8334 8.16665C12.8334 8.81098 12.3111 9.33331 11.6667 9.33331C11.0224 9.33331 10.5001 8.81098 10.5001 8.16665L10.5001 6.99998L3.50008 6.99998C2.85575 6.99998 2.33342 6.47764 2.33342 5.83331C2.33342 5.18898 2.85575 4.66665 3.50008 4.66665L10.5001 4.66665L10.5001 3.49998C10.5001 2.85565 11.0224 2.33331 11.6667 2.33331ZM9.33342 18.6666C9.97775 18.6666 10.5001 19.189 10.5001 19.8333L10.5001 24.5C10.5001 25.1443 9.97775 25.6666 9.33341 25.6666C8.68908 25.6666 8.16675 25.1443 8.16675 24.5L8.16675 23.3333L3.50008 23.3333C2.85575 23.3333 2.33342 22.811 2.33342 22.1666C2.33342 21.5223 2.85575 21 3.50008 21L8.16675 21L8.16675 19.8333C8.16675 19.189 8.68908 18.6666 9.33342 18.6666Z" fill="#2F1707"/>
</svg>
