<svg width="24" height="25" viewBox="0 0 24 25" fill="none" xmlns="http://www.w3.org/2000/svg">
<path fill-rule="evenodd" clip-rule="evenodd" d="M22 8.58863V16.6346C22 16.6921 22 16.7495 21.9425 16.8645C21.9138 17.0656 21.8994 17.2668 21.8851 17.4679C21.8707 17.6691 21.8563 17.8702 21.8276 18.0714C21.5977 19.3358 21.0805 20.4277 20.1034 21.2898C19.069 22.2093 17.8046 22.6116 16.4253 22.6691C15.9655 22.7266 15.5057 22.7266 14.9885 22.7266H8.95402C8.83908 22.7266 8.72414 22.7266 8.6092 22.6691C7.8046 22.6691 7 22.6116 6.25287 22.4392C4.58621 22.0369 3.37931 21.1174 2.63218 19.5656C2.17241 18.5886 2.05747 17.5541 2.05747 16.5197C2.05747 15.4564 2.0431 14.3789 2.02874 13.3013C2.01437 12.2237 2 11.1461 2 10.0829C2 9.10587 2 8.12886 2.22989 7.15185C2.63218 5.42771 3.55172 4.16334 5.16092 3.41622C6.08046 2.95645 7.11494 2.84151 8.14943 2.78403C10.908 2.72656 13.6667 2.66909 16.4253 2.84151C17.2299 2.89898 18.0345 3.01392 18.7241 3.35875C20.5632 4.16334 21.5402 5.6576 21.8276 7.61162C21.8851 7.89898 21.9425 8.2438 22 8.58863ZM12 20.8875C12.2586 20.8587 12.5172 20.8587 12.7831 20.8587C13.0489 20.8587 13.3218 20.8587 13.6092 20.83C13.9912 20.8109 14.3733 20.8045 14.7532 20.7981H14.7533C15.5164 20.7853 16.271 20.7727 17 20.6576C18.5517 20.4852 19.5862 19.5656 19.931 18.0714C20.1034 17.4392 20.1609 16.807 20.1609 16.1748C20.2184 14.1634 20.2184 12.152 20.2184 10.1406V10.1404C20.2184 9.33576 20.1609 8.53116 20.046 7.72656C19.8161 6.11737 18.8391 5.02541 17.2299 4.68059C16.5402 4.56564 15.8506 4.50817 15.1609 4.50817C14.55 4.50817 13.9328 4.50183 13.3134 4.49547C12.0682 4.48267 10.8144 4.46979 9.58621 4.50817C8.72414 4.50817 7.8046 4.56564 6.94253 4.68059C5.44828 4.91047 4.41379 5.83001 4.12644 7.32426C3.99713 7.84151 3.9648 8.35875 3.93247 8.87599L3.93247 8.87601C3.92169 9.04841 3.91092 9.22082 3.89655 9.39323C3.83908 11.0024 3.83908 12.6116 3.83908 14.2783C3.83908 15.3702 3.89655 16.5197 4.01149 17.6116C4.12644 18.7036 4.64368 19.6231 5.62069 20.2553C6.25287 20.6576 7 20.83 7.74713 20.83C8.42972 20.83 9.12638 20.8441 9.83015 20.8583H9.83024C10.5486 20.8728 11.2743 20.8875 12 20.8875ZM12.0001 17.8415C9.12651 17.8415 6.82766 15.4852 6.88513 12.6691C6.88513 9.79551 9.24145 7.49666 12.0575 7.55413C14.9311 7.55413 17.23 9.91045 17.1725 12.7265C17.115 15.5426 14.8162 17.8415 12.0001 17.8415ZM8.66674 12.6691C8.66674 14.5082 10.161 16.0024 12.0001 16.0024C13.8392 16.0024 15.3334 14.5082 15.3334 12.6691C15.3334 10.83 13.8392 9.33574 12.0001 9.33574C10.161 9.33574 8.66674 10.83 8.66674 12.6691ZM17.345 8.53112C18.0346 8.53112 18.5519 8.01388 18.5519 7.32422C18.5519 6.69204 18.0346 6.11733 17.345 6.11733C16.6553 6.11733 16.1381 6.69204 16.1381 7.32422C16.1381 7.95641 16.7128 8.53112 17.345 8.53112Z" fill="#9A8C81"/>
</svg>
