<svg width="32" height="32" viewBox="0 0 32 32" fill="none" xmlns="http://www.w3.org/2000/svg">
<path d="M24.6289 14.3766L17.015 14.3762C16.6788 14.3762 16.4062 14.6487 16.4062 14.9849V17.4172C16.4062 17.7534 16.6788 18.0259 17.015 18.0259H21.3027C20.8331 19.2444 19.9568 20.2648 18.8388 20.9132L20.6671 24.0781C23.5998 22.382 25.3337 19.4059 25.3337 16.0744C25.3337 15.6001 25.2988 15.261 25.2288 14.8792C25.1757 14.5891 24.9238 14.3766 24.6289 14.3766Z" fill="#167EE6"/>
<path d="M15.9996 21.6809C13.9013 21.6809 12.0695 20.5344 11.0857 18.8379L7.9209 20.662C9.53144 23.4533 12.5485 25.333 15.9996 25.333C17.6926 25.333 19.2901 24.8772 20.6663 24.0828V24.0785L18.838 20.9135C18.0017 21.3986 17.034 21.6809 15.9996 21.6809Z" fill="#12B347"/>
<path d="M20.6666 24.0828V24.0785L18.8384 20.9136C18.0021 21.3986 17.0344 21.6809 16 21.6809V25.3331C17.693 25.3331 19.2906 24.8772 20.6666 24.0828Z" fill="#0F993E"/>
<path d="M10.3191 15.9956C10.3191 14.9613 10.6014 13.9936 11.0863 13.1574L7.92155 11.3333C7.12279 12.7051 6.66699 14.2982 6.66699 15.9956C6.66699 17.6929 7.12279 19.286 7.92155 20.6579L11.0863 18.8337C10.6014 17.9975 10.3191 17.0298 10.3191 15.9956Z" fill="#FFD500"/>
<path d="M15.9996 10.3187C17.3679 10.3187 18.6248 10.8049 19.6065 11.6136C19.8487 11.8131 20.2007 11.7987 20.4225 11.5769L22.1459 9.85349C22.3976 9.60179 22.3797 9.18977 22.1108 8.95651C20.466 7.52958 18.3259 6.6665 15.9996 6.6665C12.5485 6.6665 9.53144 8.54618 7.9209 11.3375L11.0857 13.1616C12.0695 11.4651 13.9013 10.3187 15.9996 10.3187Z" fill="#FF4B26"/>
<path d="M19.6069 11.6136C19.8491 11.8131 20.2011 11.7987 20.4229 11.5769L22.1463 9.85349C22.398 9.60179 22.38 9.18977 22.1112 8.95651C20.4664 7.52954 18.3263 6.6665 16 6.6665V10.3187C17.3683 10.3187 18.6252 10.8049 19.6069 11.6136Z" fill="#D93F21"/>
</svg>
