<svg width="21" height="21" viewBox="0 0 21 21" fill="none" xmlns="http://www.w3.org/2000/svg">
<path fill-rule="evenodd" clip-rule="evenodd" d="M9.54166 2.83341C5.83675 2.83341 2.83332 5.83684 2.83332 9.54175C2.83332 13.2467 5.83675 16.2501 9.54166 16.2501C11.349 16.2501 12.9894 15.5353 14.1957 14.3731C14.2209 14.3403 14.2486 14.3087 14.2786 14.2787C14.3086 14.2486 14.3402 14.221 14.373 14.1958C15.5352 12.9895 16.25 11.3491 16.25 9.54175C16.25 5.83684 13.2466 2.83341 9.54166 2.83341ZM16.2806 14.9254C17.4609 13.4498 18.1667 11.5782 18.1667 9.54175C18.1667 4.77829 14.3051 0.916748 9.54166 0.916748C4.7782 0.916748 0.916656 4.77829 0.916656 9.54175C0.916656 14.3052 4.7782 18.1667 9.54166 18.1667C11.5781 18.1667 13.4498 17.461 14.9253 16.2807L18.4473 19.8027C18.8216 20.177 19.4284 20.177 19.8026 19.8027C20.1769 19.4285 20.1769 18.8217 19.8026 18.4474L16.2806 14.9254Z" fill="#2F1707"/>
</svg>
