<svg width="44" height="58" viewBox="0 0 44 58" fill="none" xmlns="http://www.w3.org/2000/svg">
<path fill-rule="evenodd" clip-rule="evenodd" d="M12.557 19.4244C12.8149 19.1624 13.1958 19.0631 13.5488 19.1658C20.1909 21.0972 26.4545 24.1486 32.0696 28.1883C32.3307 28.3761 32.4855 28.6782 32.4856 29C32.4856 29.3217 32.3308 29.6238 32.0696 29.8117C26.455 33.852 20.1918 36.904 13.5499 38.8362C13.1969 38.9389 12.816 38.8396 12.5581 38.5777C12.3001 38.3158 12.2067 37.9334 12.3147 37.582L14.9543 29.0001L12.3138 20.4201C12.2057 20.0688 12.299 19.6864 12.557 19.4244ZM16.7392 30L14.7819 36.3638C20.0932 34.6331 25.1316 32.1538 29.7443 29.0001C25.1312 25.8469 20.0927 23.3681 14.7812 21.6381L16.7391 28H23.5006C24.0528 28 24.5006 28.4477 24.5006 29C24.5006 29.5523 24.0528 30 23.5006 30H16.7392Z" fill="#2F1707"/>
</svg>
