<svg width="30" height="30" viewBox="0 0 30 30" fill="none" xmlns="http://www.w3.org/2000/svg">
<path fill-rule="evenodd" clip-rule="evenodd" d="M22.5 3.75C21.1193 3.75 20 4.86929 20 6.25C20 7.63071 21.1193 8.75 22.5 8.75C23.8807 8.75 25 7.63071 25 6.25C25 4.86929 23.8807 3.75 22.5 3.75ZM17.5 6.25C17.5 3.48858 19.7386 1.25 22.5 1.25C25.2614 1.25 27.5 3.48858 27.5 6.25C27.5 9.01142 25.2614 11.25 22.5 11.25C19.7386 11.25 17.5 9.01142 17.5 6.25Z" fill="white"/>
<path fill-rule="evenodd" clip-rule="evenodd" d="M7.5 12.5C6.11929 12.5 5 13.6193 5 15C5 16.3807 6.11929 17.5 7.5 17.5C8.88071 17.5 10 16.3807 10 15C10 13.6193 8.88071 12.5 7.5 12.5ZM2.5 15C2.5 12.2386 4.73858 10 7.5 10C10.2614 10 12.5 12.2386 12.5 15C12.5 17.7614 10.2614 20 7.5 20C4.73858 20 2.5 17.7614 2.5 15Z" fill="white"/>
<path fill-rule="evenodd" clip-rule="evenodd" d="M22.5 21.25C21.1193 21.25 20 22.3693 20 23.75C20 25.1307 21.1193 26.25 22.5 26.25C23.8807 26.25 25 25.1307 25 23.75C25 22.3693 23.8807 21.25 22.5 21.25ZM17.5 23.75C17.5 20.9886 19.7386 18.75 22.5 18.75C25.2614 18.75 27.5 20.9886 27.5 23.75C27.5 26.5114 25.2614 28.75 22.5 28.75C19.7386 28.75 17.5 26.5114 17.5 23.75Z" fill="white"/>
<path fill-rule="evenodd" clip-rule="evenodd" d="M9.6575 16.2586C10.0051 15.6621 10.7704 15.4603 11.3669 15.8079L19.9044 20.7829C20.5008 21.1305 20.7026 21.8958 20.355 22.4922C20.0074 23.0887 19.2421 23.2905 18.6457 22.9429L10.1082 17.9679C9.51169 17.6203 9.30992 16.855 9.6575 16.2586Z" fill="white"/>
<path fill-rule="evenodd" clip-rule="evenodd" d="M20.3421 7.50786C20.6901 8.10411 20.4888 8.86955 19.8925 9.21751L11.3675 14.1925C10.7713 14.5405 10.0059 14.3392 9.6579 13.7429C9.30994 13.1467 9.51122 12.3812 10.1075 12.0333L18.6325 7.05829C19.2287 6.71033 19.9942 6.91161 20.3421 7.50786Z" fill="white"/>
</svg>
