<svg width="20" height="20" viewBox="0 0 20 20" fill="none" xmlns="http://www.w3.org/2000/svg">
<g clip-path="url(#clip0_2839_4554)">
<path d="M9.99992 19.1663C4.91658 19.1663 0.833252 15.083 0.833252 9.99967C0.833252 4.91634 4.91658 0.833008 9.99992 0.833008C15.0833 0.833008 19.1666 4.91634 19.1666 9.99967C19.1666 15.083 15.0833 19.1663 9.99992 19.1663ZM9.99992 2.49967C5.83325 2.49967 2.49992 5.83301 2.49992 9.99967C2.49992 14.1663 5.83325 17.4997 9.99992 17.4997C14.1666 17.4997 17.4999 14.1663 17.4999 9.99967C17.4999 5.83301 14.1666 2.49967 9.99992 2.49967Z" fill="#745039"/>
<path d="M13.3334 12.5003C13.1667 12.5003 13.0834 12.5003 13.0001 12.417L9.66675 10.7503C9.33342 10.5837 9.16675 10.3337 9.16675 10.0003V5.00033C9.16675 4.50033 9.50008 4.16699 10.0001 4.16699C10.5001 4.16699 10.8334 4.50033 10.8334 5.00033V9.50033L13.6667 10.917C14.0834 11.0837 14.2501 11.5837 14.0001 12.0003C13.9167 12.3337 13.6667 12.5003 13.3334 12.5003Z" fill="#745039"/>
</g>
<defs>
<clipPath id="clip0_2839_4554">
<rect width="20" height="20" fill="white"/>
</clipPath>
</defs>
</svg>
