<svg width="32" height="33" viewBox="0 0 32 33" fill="none" xmlns="http://www.w3.org/2000/svg">
<path fill-rule="evenodd" clip-rule="evenodd" d="M1.33301 16.4997C1.33301 8.3995 7.8995 1.83301 15.9997 1.83301C24.0998 1.83301 30.6663 8.3995 30.6663 16.4997C30.6663 24.5998 24.0998 31.1663 15.9997 31.1663C7.8995 31.1663 1.33301 24.5998 1.33301 16.4997Z" fill="#745039"/>
<path fill-rule="evenodd" clip-rule="evenodd" d="M25.0299 10.1334C25.4349 10.5339 25.4349 11.1833 25.0299 11.5839L13.6225 22.8659C13.2175 23.2665 12.5609 23.2665 12.1559 22.8659L6.97073 17.7377C6.56575 17.3372 6.56575 16.6878 6.97073 16.2873C7.37572 15.8867 8.03234 15.8867 8.43733 16.2873L12.8892 20.6902L23.5633 10.1334C23.9683 9.73287 24.6249 9.73287 25.0299 10.1334Z" fill="white"/>
</svg>
