<svg width="18" height="18" viewBox="0 0 18 18" fill="none" xmlns="http://www.w3.org/2000/svg">
<path fill-rule="evenodd" clip-rule="evenodd" d="M2.22177 9C2.29691 9.12591 2.39652 9.28637 2.51992 9.47165C2.83688 9.94754 3.30626 10.5804 3.91564 11.2107C5.14695 12.4843 6.86846 13.6667 9.00006 13.6667C11.1317 13.6667 12.8532 12.4843 14.0845 11.2107C14.6939 10.5804 15.1632 9.94754 15.4802 9.47165C15.6036 9.28637 15.7032 9.12591 15.7783 9C15.7032 8.87409 15.6036 8.71363 15.4802 8.52835C15.1632 8.05246 14.6939 7.4196 14.0845 6.78929C12.8532 5.51571 11.1317 4.33333 9.00006 4.33333C6.86846 4.33333 5.14695 5.51571 3.91564 6.78929C3.30626 7.4196 2.83688 8.05246 2.51992 8.52835C2.39652 8.71363 2.29691 8.87409 2.22177 9ZM16.5626 9C17.1775 8.70186 17.1773 8.70139 17.1773 8.70139L17.1762 8.69925L17.1738 8.69469L17.166 8.67988C17.1595 8.66752 17.1502 8.65021 17.1382 8.62829C17.1143 8.58447 17.0796 8.52215 17.0343 8.44399C16.9436 8.28776 16.8102 8.06768 16.6353 7.80498C16.2862 7.28088 15.7673 6.5804 15.0876 5.87737C13.7408 4.48429 11.681 3 9.00006 3C6.31913 3 4.25936 4.48429 2.91252 5.87737C2.23283 6.5804 1.71393 7.28088 1.36486 7.80498C1.1899 8.06768 1.05648 8.28776 0.965857 8.44399C0.920518 8.52215 0.88581 8.58447 0.861894 8.62829C0.849934 8.65021 0.840665 8.66752 0.834108 8.67988L0.826306 8.69469L0.823933 8.69925L0.82313 8.7008C0.82313 8.7008 0.822582 8.70186 1.43751 9L0.822582 8.70186C0.725806 8.88954 0.725806 9.11046 0.822582 9.29814L1.43751 9C0.822582 9.29814 0.822582 9.29814 0.822582 9.29814L0.823933 9.30075L0.826306 9.30531L0.834108 9.32012C0.840665 9.33248 0.849934 9.34979 0.861894 9.37171C0.88581 9.41553 0.920518 9.47785 0.965857 9.55601C1.05648 9.71224 1.1899 9.93232 1.36486 10.195C1.71393 10.7191 2.23283 11.4196 2.91252 12.1226C4.25936 13.5157 6.31913 15 9.00006 15C11.681 15 13.7408 13.5157 15.0876 12.1226C15.7673 11.4196 16.2862 10.7191 16.6353 10.195C16.8102 9.93232 16.9436 9.71224 17.0343 9.55601C17.0796 9.47785 17.1143 9.41553 17.1382 9.37171C17.1502 9.34979 17.1595 9.33248 17.166 9.32012L17.1738 9.30531L17.1762 9.30075L17.177 9.2992C17.177 9.2992 17.1775 9.29814 16.5626 9ZM16.5626 9L17.1775 9.29814C17.2743 9.11046 17.2741 8.88907 17.1773 8.70139L16.5626 9Z" fill="#89817A"/>
<path fill-rule="evenodd" clip-rule="evenodd" d="M9 7.5C8.17157 7.5 7.5 8.17157 7.5 9C7.5 9.82843 8.17157 10.5 9 10.5C9.82843 10.5 10.5 9.82843 10.5 9C10.5 8.17157 9.82843 7.5 9 7.5ZM6 9C6 7.34315 7.34315 6 9 6C10.6569 6 12 7.34315 12 9C12 10.6569 10.6569 12 9 12C7.34315 12 6 10.6569 6 9Z" fill="#89817A"/>
</svg>
