<svg width="24" height="25" viewBox="0 0 24 25" fill="none" xmlns="http://www.w3.org/2000/svg">
<path d="M12 4.39316C14.4 4.39316 16.7333 4.39316 19.1333 4.39316C21.4667 4.39316 23.0667 5.92649 23.5333 7.52649C23.6667 7.92649 23.7333 8.39316 23.7333 8.85982C23.7333 11.4598 23.7333 14.0598 23.7333 16.5932C23.7333 19.1265 21.8 21.0598 19.2667 21.0598C14.4667 21.0598 9.66668 21.0598 4.80001 21.0598C2.26668 21.0598 0.333344 19.1265 0.333344 16.5932C0.333344 13.9932 0.333344 11.4598 0.333344 8.85982C0.333344 6.32649 2.20001 4.39316 4.66668 4.39316C7.13334 4.32649 9.53334 4.39316 12 4.39316ZM8.80001 9.05982V16.3265C8.80001 16.6598 9.13334 16.8598 9.40001 16.6598C11.4667 15.4598 13.4667 14.2598 15.5333 13.0598C15.8 12.9265 15.8 12.5265 15.5333 12.3932C13.4667 11.1932 11.4 9.99316 9.33334 8.72649C9.06668 8.59316 8.80001 8.79316 8.80001 9.05982Z" fill="#9A8C81"/>
</svg>
